<svg xmlns="http://www.w3.org/2000/svg" xmlns:svg="http://www.w3.org/2000/svg" id="svg8" width="16" height="16" version="1.1" viewBox="0 0 4.233 4.233"><metadata id="metadata5"/><g id="layer1" transform="translate(0,-292.76665)"><ellipse id="path5101" cx="-207.056" cy="208.525" fill="#a5efac" fill-opacity="1" stroke="#a5efac" stroke-dasharray="none" stroke-miterlimit="4" stroke-opacity="1" stroke-width=".063" rx=".578" ry=".576" transform="rotate(-45)"/><path id="path5103" fill="#a5efac" fill-opacity=".558" stroke="#a5efac" stroke-dasharray="none" stroke-linecap="butt" stroke-linejoin="miter" stroke-miterlimit="4" stroke-opacity=".015" stroke-width=".055" d="m 3.4034051,293.60143 c 0,0 -0.9842545,-1.18799 -2.52676182,-0.33097 -0.0268779,0.0149 0.24756922,-0.16084 0.67462202,0.26466 0.1118816,0.11149 0.028398,0.60112 0.028398,0.60112 0.6168321,-1.57246 1.828579,-0.53965 1.828579,-0.53965 z"/><ellipse id="ellipse5630" cx="-78.423" cy="-285.678" fill="#a5efac" fill-opacity="1" stroke="#a5efac" stroke-dasharray="none" stroke-miterlimit="4" stroke-opacity="1" stroke-width=".063" rx=".578" ry=".576" transform="rotate(-165)"/><path id="path5632" fill="#a5efac" fill-opacity=".558" stroke="#a5efac" stroke-dasharray="none" stroke-linecap="butt" stroke-linejoin="miter" stroke-miterlimit="4" stroke-opacity=".015" stroke-width=".055" d="m 0.40562298,294.32273 c 0,0 -0.53670258,1.44638 0.97675292,2.35372 0.026464,0.0154 -0.2630832,-0.13395 -0.1081095,-0.71657 0.040613,-0.15264 0.5063872,-0.32515 0.5063872,-0.32515 -1.67020615,0.25203 -1.38164027,-1.31377 -1.38164027,-1.31377 z"/><ellipse id="ellipse5634" cx="285.22" cy="72.9" fill="#a5efac" fill-opacity="1" stroke="#a5efac" stroke-dasharray="none" stroke-miterlimit="4" stroke-opacity="1" stroke-width=".063" rx=".578" ry=".576" transform="rotate(75)"/><path id="path5636" fill="#a5efac" fill-opacity=".558" stroke="#a5efac" stroke-dasharray="none" stroke-linecap="butt" stroke-linejoin="miter" stroke-miterlimit="4" stroke-opacity=".015" stroke-width=".055" d="m 2.4457241,296.54705 c 0,0 1.5209509,-0.25838 1.5500049,-2.02275 1.075e-4,-0.0306 0.015536,0.29482 -0.566514,0.45192 -0.1524927,0.0411 -0.5347828,-0.27597 -0.5347828,-0.27597 1.0533679,1.32042 -0.4469369,1.85342 -0.4469369,1.85342 z"/></g></svg>