<svg xmlns="http://www.w3.org/2000/svg" xmlns:svg="http://www.w3.org/2000/svg" id="svg6" width="16" height="16" version="1.1" viewBox="0 0 16 16"><metadata id="metadata12"/><g id="g4" fill="#fff" transform="translate(0 -1036.4)"><path id="path2" fill="#fff" fill-opacity=".996" d="m7 1v3h2v-3h-2zm-2.5352 2.0508l-1.4141 1.4141 1.4141 1.4141 1.4141-1.4141-1.4141-1.4141zm7.0703 0l-1.4141 1.4141 1.4141 1.4141 1.4141-1.4141-1.4141-1.4141zm-3.5352 1.9492c-1.6569 0-3 1.3432-3 3s1.3431 3 3 3 3-1.3432 3-3-1.3431-3-3-3zm-7 2v2h3v-2h-3zm11 0v2h3v-2h-3zm-7.5352 3.1211l-1.4141 1.4141 1.4141 1.4141 1.4141-1.4141-1.4141-1.4141zm7.0703 0l-1.4141 1.4141 1.4141 1.4141 1.4141-1.4141-1.4141-1.4141zm-4.5352 1.8789v3h2v-3h-2z" transform="translate(0 1036.4)"/></g></svg>