<svg><metadata>Created by FontForge 20090914 at Mon Aug 27 15:52:20 2018 By www-data EeveSomepx</metadata><defs><font id="MatchupPro" horiz-adv-x="448"><font-face x-height="320" ascent="768" bbox="0 -128 768 682" cap-height="448" descent="-256" font-family="MatchupPro" font-stretch="normal" font-weight="500" panose-1="2 0 6 3 0 0 0 0 0 0" underline-position="-103" underline-thickness="51" unicode-range="U+0020-U+3000" units-per-em="1024"/><glyph d="M34 0v682h272v-682h-272zM68 34h204v614h-204v-614z" glyph-name=".notdef" horiz-adv-x="374"/><glyph glyph-name="space" horiz-adv-x="320"/><glyph d="M64 64h64v-64h-64h-64v64h64zM64 128h-64v64v64v64v64v64v64h64h64v-64v-64v-64v-64v-64v-64h-64z" glyph-name="exclam" horiz-adv-x="192" unicode="!"/><glyph d="M128 320v64h-64v-64h-64v64v64h64v64h64v-64h64v64h64v-64v-64h-64v-64h-64z" glyph-name="quotedbl" horiz-adv-x="320" unicode="&quot;"/><glyph d="M192 64v64h-64v-64h-64v64h-64v64h64v64h-64v64h64v64h64v-64h64v64h64v-64h64v-64h-64v-64h64v-64h-64v-64h-64zM192 192v64h-64v-64h64z" glyph-name="numbersign" horiz-adv-x="384" unicode="#"/><glyph d="M128 -64v64h-64h-64v64h64h64v64v64h-64v64h-64v64v64h64v64h64h64v64h64v-64h64v-64h-64v-64v-64h64v-64h64v-64v-64h-64v-64h-64h-64v-64h-64zM256 64v64v64h-64v-64v-64h64zM192 256v64v64h-64v-64v-64h64z" glyph-name="dollar" unicode="$"/><glyph d="M192 64v64h64v-64h-64zM0 320v64h64v-64h-64zM64 64h-64v64v64h64v64h64v64v64h64h64v-64v-64h-64v-64h-64v-64v-64h-64z" glyph-name="percent" horiz-adv-x="320" unicode="%"/><glyph d="M320 0h-64v64h-64v64h-64v-64h64v-64h-64h-64v64h-64v64h64v64h-64v64v64h64v64h64h64h64v-64h64v-64v-64h64v-64h-64v64h-64v-64h64v-64h64v-64h-64zM192 192v64v64h-64v-64v-64h64z" glyph-name="ampersand" unicode="&amp;"/><glyph d="M0 320v64v64h64v64h64v-64v-64h-64v-64h-64z" glyph-name="quotesingle" horiz-adv-x="192" unicode="'"/><glyph d="M192 0h64v-64h-64h-64h-64v64h-64v64v64v64v64v64v64v64h64v64h64h64h64v-64h-64h-64v-64v-64v-64v-64v-64v-64v-64h64z" glyph-name="parenleft" horiz-adv-x="320" unicode="("/><glyph d="M128 -64h-64h-64v64h64h64v64v64v64v64v64v64v64h-64h-64v64h64h64h64v-64h64v-64v-64v-64v-64v-64v-64v-64h-64v-64h-64z" glyph-name="parenright" horiz-adv-x="320" unicode=")"/><glyph d="M256 128h-64v64h-64v-64h-64h-64v64h64v64h-64v64h64h64v-64h64v64h64h64v-64h-64v-64h64v-64h-64z" glyph-name="asterisk" horiz-adv-x="384" unicode="*"/><glyph d="M128 128h-64v64h-64v64h64v64h64h64v-64h64v-64h-64v-64h-64z" glyph-name="plus" horiz-adv-x="320" unicode="+"/><glyph d="M64 -64h-64v64h64v64h64h64v-64h-64v-64h-64z" glyph-name="comma" horiz-adv-x="256" unicode=","/><glyph d="M192 256h64v-64h-64h-64h-64h-64v64h64h64h64z" glyph-name="hyphen" horiz-adv-x="320" unicode="-"/><glyph d="M64 64h64v-64h-64h-64v64h64z" glyph-name="period" horiz-adv-x="192" unicode="."/><glyph d="M64 0h-64v64v64h64v64v64h64v64v64h64h64v-64v-64h-64v-64v-64h-64v-64v-64h-64z" glyph-name="slash" horiz-adv-x="320" unicode="/"/><glyph d="M192 0h-64h-64v64h-64v64v64v64v64v64h64v64h64h64h64v-64h64v-64v-64v-64v-64v-64h-64v-64h-64zM192 64v64v64v64v64v64h-64v-64v-64v-64v-64v-64h64z" glyph-name="zero" horiz-adv-x="384" unicode="0"/><glyph d="M256 0h-64h-64h-64h-64v64h64h64v64v64v64v64h-64h-64v64h64h64v64h64h64v-64v-64v-64v-64v-64v-64h64v-64h-64z" glyph-name="one" horiz-adv-x="384" unicode="1"/><glyph d="M256 64h64v-64h-64h-64h-64h-64h-64v64v64v64h64v64h64h64v64v64h-64h-64h-64v64h64h64h64h64v-64h64v-64v-64h-64v-64h-64h-64v-64v-64h64h64z" glyph-name="two" horiz-adv-x="384" unicode="2"/><glyph d="M192 0h-64h-64h-64v64h64h64h64v64v64h-64h-64v64h64h64v64v64h-64h-64h-64v64h64h64h64h64v-64h64v-64v-64h-64v-64h64v-64v-64h-64v-64h-64z" glyph-name="three" horiz-adv-x="384" unicode="3"/><glyph d="M256 0h-64v64v64h-64h-64v64h-64v64v64v64v64h64h64v-64v-64v-64v-64h64v64v64v64v64h64h64v-64v-64v-64v-64v-64v-64v-64h-64z" glyph-name="four" horiz-adv-x="384" unicode="4"/><glyph d="M192 0h-64h-64h-64v64h64h64h64v64v64h-64h-64h-64v64v64v64v64h64h64h64h64v-64h-64h-64v-64v-64h64h64v-64h64v-64v-64h-64v-64h-64z" glyph-name="five" horiz-adv-x="384" unicode="5"/><glyph d="M192 0h-64h-64v64h-64v64v64v64v64v64h64v64h64h64h64v-64h-64h-64v-64h64h64v-64h64v-64v-64v-64h-64v-64h-64zM192 64v64v64v64h-64v-64v-64v-64h64z" glyph-name="six" horiz-adv-x="384" unicode="6"/><glyph d="M128 0h-64v64v64v64h64v64h64v64v64h-64h-64h-64v64h64h64h64h64h64v-64v-64v-64h-64v-64h-64v-64v-64v-64h-64z" glyph-name="seven" horiz-adv-x="384" unicode="7"/><glyph d="M192 0h-64h-64v64h-64v64v64h64v64h-64v64v64h64v64h64h64h64v-64h64v-64v-64h-64v-64h64v-64v-64h-64v-64h-64zM192 64v64v64h-64v-64v-64h64zM192 256v64v64h-64v-64v-64h64z" glyph-name="eight" horiz-adv-x="384" unicode="8"/><glyph d="M192 0h-64h-64v64h64h64v64h-64h-64v64h-64v64v64v64h64v64h64h64h64v-64h64v-64v-64v-64v-64v-64h-64v-64h-64zM192 192v64v64v64h-64v-64v-64v-64h64z" glyph-name="nine" horiz-adv-x="384" unicode="9"/><glyph d="M64 128h64v-64h-64h-64v64h64zM64 256h64v-64h-64h-64v64h64z" glyph-name="colon" horiz-adv-x="192" unicode=":"/><glyph d="M64 -64h-64v64h64v64h64h64v-64h-64v-64h-64zM128 192h64v-64h-64h-64v64h64z" glyph-name="semicolon" horiz-adv-x="256" unicode=";"/><glyph d="M128 128h-64v64h-64v64h64v64h64h64v-64h-64v-64h64v-64h-64z" glyph-name="less" horiz-adv-x="256" unicode="&lt;"/><glyph d="M192 192h64v-64h-64h-64h-64h-64v64h64h64h64zM192 320h64v-64h-64h-64h-64h-64v64h64h64h64z" glyph-name="equal" horiz-adv-x="320" unicode="="/><glyph d="M64 128h-64v64h64v64h-64v64h64h64v-64h64v-64h-64v-64h-64z" glyph-name="greater" horiz-adv-x="256" unicode="&gt;"/><glyph d="M0 384v64h64v-64h-64zM128 64h64v-64h-64h-64v64h64zM128 128h-64v64v64h64v64v64v64h-64v64h64h64v-64h64v-64v-64v-64h-64v-64v-64h-64z" glyph-name="question" horiz-adv-x="320" unicode="?"/><glyph d="M128 -64h-64v64h-64v64v64v64v64v64h64v64h64v64h64h64h64h64h64h64h64h64v-64h64v-64h64v-64v-64v-64h-64v-64h-64h-64v-64h-64h-64h-64h-64h-64v64h-64v64h64v64h64h64h64v64h-64h-64h-64v64h64h64h64h64v-64h64v-64v-64h64v64v64v64h-64v64h-64h-64h-64h-64h-64h-64 v-64h-64v-64v-64v-64v-64v-64h64v-64h-64zM384 64h64v64h-64h-64v-64h64z" glyph-name="at" horiz-adv-x="832" unicode="@"/><glyph d="M320 0h-64v64v64v64h-64h-64v-64v-64v-64h-64h-64v64v64v64v64v64v64h64v64h64h64h64h64v-64h64v-64v-64v-64v-64v-64v-64h-64zM192 256h64v64v64h-64h-64v-64v-64h64z" glyph-name="A" unicode="A"/><glyph d="M256 0h-64h-64h-64h-64v64v64v64v64v64v64v64h64h64h64h64h64v-64h64v-64v-64h-64v-64h64v-64v-64h-64v-64h-64zM192 64h64v64v64h-64h-64v-64v-64h64zM192 256h64v64v64h-64h-64v-64v-64h64z" glyph-name="B" unicode="B"/><glyph d="M256 64h64v-64h-64h-64h-64h-64v64h-64v64v64v64v64v64h64v64h64h64h64h64v-64h-64h-64h-64v-64v-64v-64v-64v-64h64h64z" glyph-name="C" horiz-adv-x="384" unicode="C"/><glyph d="M256 0h-64h-64h-64h-64v64v64v64v64v64v64v64h64h64h64h64h64v-64h64v-64v-64v-64v-64v-64h-64v-64h-64zM192 64h64v64v64v64v64v64h-64h-64v-64v-64v-64v-64v-64h64z" glyph-name="D" unicode="D"/><glyph d="M256 64h64v-64h-64h-64h-64h-64h-64v64v64v64v64v64v64v64h64h64h64h64h64v-64h-64h-64h-64v-64v-64h64h64v-64h-64h-64v-64v-64h64h64z" glyph-name="E" horiz-adv-x="384" unicode="E"/><glyph d="M64 0h-64v64v64v64v64v64v64v64h64h64h64h64h64v-64h-64h-64h-64v-64v-64h64h64v-64h-64h-64v-64v-64v-64h-64z" glyph-name="F" horiz-adv-x="384" unicode="F"/><glyph d="M256 0h-64h-64h-64v64h-64v64v64v64v64v64h64v64h64h64h64h64v-64h-64h-64h-64v-64v-64v-64v-64v-64h64h64v64v64h-64v64h64h64h64v-64v-64v-64h-64v-64h-64z" glyph-name="G" unicode="G"/><glyph d="M320 0h-64v64v64v64h-64h-64v-64v-64v-64h-64h-64v64v64v64v64v64v64v64h64h64v-64v-64v-64h64h64v64v64v64h64h64v-64v-64v-64v-64v-64v-64v-64h-64z" glyph-name="H" unicode="H"/><glyph d="M192 0h-64h-64h-64v64h64v64v64v64v64v64h-64v64h64h64h64h64v-64h-64v-64v-64v-64v-64v-64h64v-64h-64z" glyph-name="I" horiz-adv-x="320" unicode="I"/><glyph d="M64 -64h-64v64h64v64v64v64v64v64v64h-64v64h64h64h64v-64v-64v-64v-64v-64v-64v-64h-64v-64h-64z" glyph-name="J" horiz-adv-x="256" unicode="J"/><glyph d="M320 0h-64v64v64v64h-64v-64h-64v-64v-64h-64h-64v64v64v64v64v64v64v64h64h64v-64v-64v-64v-64h64v64h64v64v64v64h64h64v-64v-64v-64h-64v-64h64v-64v-64v-64h-64z" glyph-name="K" unicode="K"/><glyph d="M256 64h64v-64h-64h-64h-64h-64h-64v64v64v64v64v64v64v64h64h64v-64v-64v-64v-64v-64v-64h64h64z" glyph-name="L" horiz-adv-x="384" unicode="L"/><glyph d="M192 256v64h-64v-64v-64v-64v-64v-64h-64h-64v64v64v64v64v64v64v64h64h64h64v-64h64v64h64h64h64v-64v-64v-64v-64v-64v-64v-64h-64h-64v64v64v64v64v64h-64v-64h-64z" glyph-name="M" horiz-adv-x="512" unicode="M"/><glyph d="M320 0h-64v64v64v64h-64v64h-64v-64v-64v-64v-64h-64h-64v64v64v64v64v64v64v64h64h64v-64h64v-64h64v64v64h64h64v-64v-64v-64v-64v-64v-64v-64h-64z" glyph-name="N" unicode="N"/><glyph d="M256 0h-64h-64h-64v64h-64v64v64v64v64v64h64v64h64h64h64h64v-64h64v-64v-64v-64v-64v-64h-64v-64h-64zM192 64h64v64v64v64v64v64h-64h-64v-64v-64v-64v-64v-64h64z" glyph-name="O" unicode="O"/><glyph d="M64 0h-64v64v64v64v64v64v64v64h64h64h64h64h64v-64h64v-64v-64h-64v-64h-64h-64h-64v-64v-64v-64h-64zM192 256h64v64v64h-64h-64v-64v-64h64z" glyph-name="P" unicode="P"/><glyph d="M320 -64h-64v64h-64h-64h-64v64h-64v64v64v64v64v64h64v64h64h64h64h64v-64h64v-64v-64v-64v-64v-64h-64v-64h64v-64h-64zM192 64v64h64v64v64v64v64h-64h-64v-64v-64v-64v-64v-64h64z" glyph-name="Q" unicode="Q"/><glyph d="M320 0h-64v64v64v64h-64h-64v-64v-64v-64h-64h-64v64v64v64v64v64v64v64h64h64h64h64h64v-64h64v-64v-64h-64v-64h64v-64v-64v-64h-64zM192 256h64v64v64h-64h-64v-64v-64h64z" glyph-name="R" unicode="R"/><glyph d="M192 0h-64h-64h-64v64h64h64h64v64v64h-64h-64v64h-64v64v64h64v64h64h64h64h64v-64h-64h-64h-64v-64v-64h64h64v-64h64v-64v-64h-64v-64h-64z" glyph-name="S" horiz-adv-x="384" unicode="S"/><glyph d="M192 0h-64v64v64v64v64v64v64h-64h-64v64h64h64h64h64h64h64v-64h-64h-64v-64v-64v-64v-64v-64v-64h-64z" glyph-name="T" unicode="T"/><glyph d="M256 0h-64h-64h-64v64h-64v64v64v64v64v64v64h64h64v-64v-64v-64v-64v-64v-64h64h64v64v64v64v64v64v64h64h64v-64v-64v-64v-64v-64v-64h-64v-64h-64z" glyph-name="U" unicode="U"/><glyph d="M256 0h-64h-64v64v64h-64v64v64h-64v64v64v64h64h64v-64v-64v-64h64v-64v-64h64v64v64h64v64v64v64h64h64v-64v-64v-64h-64v-64v-64h-64v-64v-64h-64z" glyph-name="V" horiz-adv-x="512" unicode="V"/><glyph d="M320 0h-64v64h-64v-64h-64h-64v64h-64v64v64v64v64v64v64h64h64v-64v-64v-64v-64v-64h64v64h64v-64h64v64v64v64v64v64h64h64v-64v-64v-64v-64v-64v-64h-64v-64h-64z" glyph-name="W" horiz-adv-x="512" unicode="W"/><glyph d="M320 0h-64v64v64v64h-64h-64v-64v-64v-64h-64h-64v64v64v64h64v64h-64v64v64v64h64h64v-64v-64v-64h64h64v64v64v64h64h64v-64v-64v-64h-64v-64h64v-64v-64v-64h-64z" glyph-name="X" unicode="X"/><glyph d="M192 0h-64v64v64v64h-64v64h-64v64v64v64h64h64v-64v-64v-64h64h64v64v64v64h64h64v-64v-64v-64h-64v-64h-64v-64v-64v-64h-64z" glyph-name="Y" unicode="Y"/><glyph d="M256 64h64v-64h-64h-64h-64h-64h-64v64v64v64h64v64h64v64h64v64h-64h-64h-64v64h64h64h64h64h64v-64v-64h-64v-64h-64v-64h-64v-64v-64h64h64z" glyph-name="Z" horiz-adv-x="384" unicode="Z"/><glyph d="M192 0h64v-64h-64h-64h-64h-64v64v64v64v64v64v64v64v64v64h64h64h64h64v-64h-64h-64v-64v-64v-64v-64v-64v-64v-64h64z" glyph-name="bracketleft" horiz-adv-x="320" unicode="["/><glyph d="M192 0h-64v64v64h-64v64v64h-64v64v64h64h64v-64v-64h64v-64v-64h64v-64v-64h-64z" glyph-name="backslash" horiz-adv-x="320" unicode="\"/><glyph d="M192 -64h-64h-64h-64v64h64h64v64v64v64v64v64v64v64h-64h-64v64h64h64h64h64v-64v-64v-64v-64v-64v-64v-64v-64v-64h-64z" glyph-name="bracketright" horiz-adv-x="320" unicode="]"/><glyph d="M192 448v64h64v-64h-64zM64 448h-64v64h64v64h64h64v-64h-64v-64h-64z" glyph-name="asciicircum" horiz-adv-x="320" unicode="^"/><glyph d="M192 0h64v-64h-64h-64h-64h-64v64h64h64h64z" glyph-name="underscore" horiz-adv-x="320" unicode="_"/><glyph d="M64 320v64h-64v64v64h64v-64h64v-64v-64h-64z" glyph-name="grave" horiz-adv-x="192" unicode="`"/><glyph d="M320 0h-64h-64h-64h-64v64h-64v64h64v64h64h64h64v64h-64h-64h-64v64h64h64h64h64v-64h64v-64v-64v-64v-64h-64zM192 64h64v64h-64h-64v-64h64z" glyph-name="a" unicode="a"/><glyph d="M256 0h-64h-64h-64h-64v64v64v64v64v64v64v64h64h64v-64v-64v-64h64v64h64h64v-64h64v-64v-64v-64h-64v-64h-64zM192 64h64v64v64v64h-64v-64h-64v-64v-64h64z" glyph-name="b" unicode="b"/><glyph d="M256 64h64v-64h-64h-64h-64h-64v64h-64v64v64v64h64v64h64h64h64h64v-64h-64h-64h-64v-64v-64v-64h64h64z" glyph-name="c" horiz-adv-x="384" unicode="c"/><glyph d="M320 0h-64h-64h-64h-64v64h-64v64v64v64h64v64h64h64v-64h-64v-64v-64v-64h64h64v64v64h-64v64h64v64v64v64h64h64v-64v-64v-64v-64v-64v-64v-64h-64z" glyph-name="d" unicode="d"/><glyph d="M320 64h64v-64h-64h-64h-64h-64h-64v64h-64v64v64v64h64v64h64h64h64h64v-64h64v-64v-64h-64h-64h-64h-64v-64h64h64h64zM192 192h64v64h-64h-64v-64h64z" glyph-name="e" unicode="e"/><glyph d="M128 -64h-64v64v64v64v64h-64v64h64v64v64h64v64h64h64h64v-64h-64h-64v-64v-64h64h64v-64h-64h-64v-64v-64v-64v-64h-64z" glyph-name="f" horiz-adv-x="384" unicode="f"/><glyph d="M256 -64h-64h-64h-64v64h64h64h64v64h-64h-64h-64v64h-64v64v64h64v64h64h64h64h64v-64h64v-64v-64v-64v-64h-64v-64h-64zM192 128h64v64v64h-64h-64v-64v-64h64z" glyph-name="g" unicode="g"/><glyph d="M320 0h-64v64v64v64v64h-64v-64h-64v-64v-64v-64h-64h-64v64v64v64v64v64v64v64h64h64v-64v-64v-64h64v64h64h64v-64h64v-64v-64v-64v-64h-64z" glyph-name="h" unicode="h"/><glyph d="M192 0h-64h-64h-64v64h64v64v64v64h-64v64h64h64h64v-64v-64v-64v-64h64v-64h-64zM128 448h64v-64h-64h-64v64h64z" glyph-name="i" horiz-adv-x="320" unicode="i"/><glyph d="M64 -64h-64v64h64v64v64v64v64h-64v64h64h64h64v-64v-64v-64v-64v-64h-64v-64h-64zM128 448h64v-64h-64h-64v64h64z" glyph-name="j" horiz-adv-x="256" unicode="j"/><glyph d="M320 0h-64v64v64v64h-64v-64h-64v-64v-64h-64h-64v64v64v64v64v64v64v64h64h64v-64v-64v-64v-64h64v64h64v64v64h64h64v-64v-64h-64v-64h64v-64v-64v-64h-64z" glyph-name="k" unicode="k"/><glyph d="M128 0h-64h-64v64v64v64v64v64v64v64h64h64v-64v-64v-64v-64v-64v-64h64v-64h-64z" glyph-name="l" horiz-adv-x="256" unicode="l"/><glyph d="M192 128v64h-64v-64v-64v-64h-64h-64v64v64v64v64v64h64h64h64v-64h64v64h64h64h64v-64v-64v-64v-64v-64h-64h-64v64v64v64h-64v-64h-64z" glyph-name="m" horiz-adv-x="512" unicode="m"/><glyph d="M320 0h-64v64v64v64v64h-64h-64v-64v-64v-64v-64h-64h-64v64v64v64v64v64h64h64h64h64h64v-64h64v-64v-64v-64v-64h-64z" glyph-name="n" unicode="n"/><glyph d="M256 0h-64h-64h-64v64h-64v64v64v64h64v64h64h64h64h64v-64h64v-64v-64v-64h-64v-64h-64zM192 64h64v64v64v64h-64h-64v-64v-64v-64h64z" glyph-name="o" unicode="o"/><glyph d="M64 -64h-64v64v64v64v64v64v64h64h64h64h64h64v-64h64v-64v-64h-64v-64h-64h-64h-64v-64v-64h-64zM192 128h64v64v64h-64h-64v-64v-64h64z" glyph-name="p" unicode="p"/><glyph d="M320 -64h-64v64v64h-64h-64h-64v64h-64v64v64h64v64h64h64h64h64h64v-64v-64v-64v-64v-64v-64h-64zM192 128h64v64v64h-64h-64v-64v-64h64z" glyph-name="q" unicode="q"/><glyph d="M64 0h-64v64v64v64v64v64h64h64v-64h64v-64h-64v-64v-64v-64h-64zM256 320h64v-64h-64h-64v64h64z" glyph-name="r" horiz-adv-x="384" unicode="r"/><glyph d="M256 0h-64h-64h-64h-64v64h64h64h64v64h-64h-64v64h-64v64h64v64h64h64h64h64v-64h-64h-64h-64v-64h64h64v-64h64v-64v-64h-64z" glyph-name="s" horiz-adv-x="384" unicode="s"/><glyph d="M192 64h64v-64h-64h-64h-64v64h-64v64v64v64v64v64v64h64h64v-64v-64h64h64v-64h-64h-64v-64v-64v-64h64z" glyph-name="t" horiz-adv-x="320" unicode="t"/><glyph d="M256 0h-64h-64h-64v64h-64v64v64v64v64h64h64v-64v-64v-64v-64h64h64v64v64v64v64h64h64v-64v-64v-64v-64h-64v-64h-64z" glyph-name="u" unicode="u"/><glyph d="M192 0h-64v64h-64v64v64h-64v64v64h64h64v-64v-64h64h64v64v64h64h64v-64v-64h-64v-64v-64h-64v-64h-64z" glyph-name="v" unicode="v"/><glyph d="M320 0h-64v64h-64v-64h-64h-64v64h-64v64v64v64v64h64h64v-64v-64v-64h64v64h64v-64h64v64v64v64h64h64v-64v-64v-64v-64h-64v-64h-64z" glyph-name="w" horiz-adv-x="512" unicode="w"/><glyph d="M320 0h-64v64v64h-64h-64v-64v-64h-64h-64v64v64h64v64h-64v64v64h64h64v-64v-64h64h64v64v64h64h64v-64v-64h-64v-64h64v-64v-64h-64z" glyph-name="x" unicode="x"/><glyph d="M256 -64h-64h-64v64h64h64v64h-64h-64h-64v64h-64v64v64v64h64h64v-64v-64v-64h64h64v64v64v64h64h64v-64v-64v-64v-64v-64h-64v-64h-64z" glyph-name="y" unicode="y"/><glyph d="M256 64h64v-64h-64h-64h-64h-64h-64v64h64v64h64v64h64v64h-64h-64h-64v64h64h64h64h64h64v-64v-64h-64v-64h-64v-64h64z" glyph-name="z" horiz-adv-x="384" unicode="z"/><glyph d="M192 0h64v-64h-64h-64h-64v64h-64v64v64h64v64h-64v64h64v64h-64v64v64h64v64h64h64h64v-64h-64h-64v-64h64v-64v-64h-64v-64h64v-64v-64h-64v-64h64z" glyph-name="braceleft" horiz-adv-x="320" unicode="{"/><glyph d="M64 0h-64v64v64v64v64v64v64v64h64h64v-64v-64v-64v-64v-64v-64v-64h-64z" glyph-name="bar" horiz-adv-x="192" unicode="|"/><glyph d="M128 -64h-64h-64v64h64h64v64h-64v64v64h64v64h-64v64v64h64v64h-64h-64v64h64h64h64v-64h64v-64v-64h-64v-64h64v-64h-64v-64h64v-64v-64h-64v-64h-64z" glyph-name="braceright" horiz-adv-x="320" unicode="}"/><glyph d="M192 128v64h-64v64h-64v-64h-64v64v64h64v64h64v-64h64v-64h64v64h64v-64v-64h-64v-64h-64z" glyph-name="asciitilde" horiz-adv-x="384" unicode="~"/><glyph glyph-name="uni00A0" horiz-adv-x="320"/><glyph d="M64 -64h-64v64v64v64v64v64v64h64h64v-64v-64v-64v-64v-64v-64h-64zM64 448h64v-64h-64h-64v64h64z" glyph-name="exclamdown" horiz-adv-x="192" unicode="¡"/><glyph d="M192 0v64h-64h-64v64h-64v64v64v64h64v64h64h64v64h64v-64h64v-64h-64v-64v-64v-64h64v-64h-64v-64h-64zM192 128v64v64v64h-64v-64v-64v-64h64z" glyph-name="cent" horiz-adv-x="384" unicode="¢"/><glyph d="M320 320v64h64v-64h-64zM320 64h64v-64h-64h-64h-64h-64h-64h-64v64h64v64v64h-64v64h64v64v64h64v64h64h64h64v-64h-64h-64v-64v-64h64h64v-64h-64h-64v-64v-64h64h64z" glyph-name="sterling" unicode="£"/><glyph d="M384 0h-64h-64h-64h-64v64h-64v64h-64v64v64v64h64v64h64v64h64h64h64h64h64v-64h64v-64h64v-64v-64v-64h-64v-64h-64v-64h-64zM320 64h64v64h-64h-64h-64v64v64v64h-64v-64v-64v-64h64v-64h64h64zM448 128v64v64v64h-64v64h-64h-64h-64v-64h64h64h64v-64h-64h-64v-64h64 h64v-64h64z" glyph-name="copyright" horiz-adv-x="640" unicode="©"/><glyph d="M384 0h-64h-64h-64h-64v64h-64v64h-64v64v64v64h64v64h64v64h64h64h64h64h64v-64h64v-64h64v-64v-64v-64h-64v-64h-64v-64h-64zM320 64h64v64h-64v64h-64v-64h-64v64v64v64h-64v-64v-64v-64h64v-64h64h64zM448 128v64v64v64h-64v64h-64h-64h-64v-64h64h64h64v-64h-64v-64 h64v-64h64z" glyph-name="registered" horiz-adv-x="640" unicode="®"/><glyph d="M192 256h-64h-64v64h-64v64v64h64v64h64h64h64v-64h64v-64v-64h-64v-64h-64zM192 320v64v64h-64v-64v-64h64z" glyph-name="degree" horiz-adv-x="384" unicode="°"/><glyph d="M128 -64h-64v64h-64v64v64v64h64v64v64h64h64v-64v-64h-64v-64v-64v-64h64v-64h-64zM192 0v64h64v-64h-64zM128 448h64v-64h-64h-64v64h64z" glyph-name="questiondown" horiz-adv-x="320" unicode="¿"/><glyph d="M320 0h-64v64v64v64h-64h-64v-64v-64v-64h-64h-64v64v64v64v64v64v64h64v64h64h64h64h64v-64h64v-64v-64v-64v-64v-64v-64h-64zM192 256h64v64v64h-64h-64v-64v-64h64zM192 512h-64v64h-64v64h64h64v-64h64v-64h-64z" glyph-name="Agrave" unicode="À"/><glyph d="M320 0h-64v64v64v64h-64h-64v-64v-64v-64h-64h-64v64v64v64v64v64v64h64v64h64h64h64h64v-64h64v-64v-64v-64v-64v-64v-64h-64zM192 256h64v64v64h-64h-64v-64v-64h64zM192 512h-64v64h64v64h64h64v-64h-64v-64h-64z" glyph-name="Aacute" unicode="Á"/><glyph d="M64 512v64h64v-64h-64zM320 0h-64v64v64v64h-64h-64v-64v-64v-64h-64h-64v64v64v64v64v64v64h64v64h64h64h64h64v-64h64v-64v-64v-64v-64v-64v-64h-64zM192 256h64v64v64h-64h-64v-64v-64h64zM256 512h-64v64h-64v64h64h64v-64h64v-64h-64z" glyph-name="Acircumflex" unicode="Â"/><glyph d="M64 512v64h64v-64h-64zM320 0h-64v64v64v64h-64h-64v-64v-64v-64h-64h-64v64v64v64v64v64v64h64v64h64h64h64h64v-64h64v-64v-64v-64v-64v-64v-64h-64zM192 256h64v64v64h-64h-64v-64v-64h64zM256 512h-64v64h64v64h64h64v-64h-64v-64h-64zM192 576h-64v64h64v-64z" glyph-name="Atilde" unicode="Ã"/><glyph d="M64 512v64v64h64v-64v-64h-64zM320 0h-64v64v64v64h-64h-64v-64v-64v-64h-64h-64v64v64v64v64v64v64h64v64h64h64h64h64v-64h64v-64v-64v-64v-64v-64v-64h-64zM192 256h64v64v64h-64h-64v-64v-64h64zM256 512h-64v64v64h64h64v-64v-64h-64z" glyph-name="Adieresis" unicode="Ä"/><glyph d="M320 0h-64v64v64v64h-64h-64v-64v-64v-64h-64h-64v64v64v64v64v64v64h64v64h64v64h-64v64h64v64h64h64v-64h64v-64h-64v-64h64v-64h64v-64v-64v-64v-64v-64v-64h-64zM192 256h64v64v64h-64h-64v-64v-64h64zM192 512v64h-64v-64h64z" glyph-name="Aring" unicode="Å"/><glyph d="M512 64h64v-64h-64h-64h-64h-64h-64v64v64v64h-64h-64v-64v-64v-64h-64h-64v64v64v64v64v64v64h64v64h64h64h64h64h64h64h64h64v-64h-64h-64h-64v-64v-64h64h64v-64h-64h-64v-64v-64h64h64zM192 256h64v64v64h-64h-64v-64v-64h64z" glyph-name="AE" horiz-adv-x="640" unicode="Æ"/><glyph d="M128 -128h-64v64h64v64h-64v64h-64v64v64v64v64v64h64v64h64h64h64h64v-64h-64h-64h-64v-64v-64v-64v-64v-64h64h64h64v-64h-64v-64h-64v-64h-64z" glyph-name="Ccedilla" horiz-adv-x="384" unicode="Ç"/><glyph d="M256 64h64v-64h-64h-64h-64h-64h-64v64v64v64v64v64v64v64h64h64h64h64h64v-64h-64h-64h-64v-64v-64h64h64v-64h-64h-64v-64v-64h64h64zM192 512h-64v64h-64v64h64h64v-64h64v-64h-64z" glyph-name="Egrave" horiz-adv-x="384" unicode="È"/><glyph d="M256 64h64v-64h-64h-64h-64h-64h-64v64v64v64v64v64v64v64h64h64h64h64h64v-64h-64h-64h-64v-64v-64h64h64v-64h-64h-64v-64v-64h64h64zM192 512h-64v64h64v64h64h64v-64h-64v-64h-64z" glyph-name="Eacute" horiz-adv-x="384" unicode="É"/><glyph d="M64 512v64h64v-64h-64zM256 64h64v-64h-64h-64h-64h-64h-64v64v64v64v64v64v64v64h64h64h64h64h64v-64h-64h-64h-64v-64v-64h64h64v-64h-64h-64v-64v-64h64h64zM256 512h-64v64h-64v64h64h64v-64h64v-64h-64z" glyph-name="Ecircumflex" horiz-adv-x="384" unicode="Ê"/><glyph d="M64 512v64v64h64v-64v-64h-64zM256 64h64v-64h-64h-64h-64h-64h-64v64v64v64v64v64v64v64h64h64h64h64h64v-64h-64h-64h-64v-64v-64h64h64v-64h-64h-64v-64v-64h64h64zM256 512h-64v64v64h64h64v-64v-64h-64z" glyph-name="Edieresis" horiz-adv-x="384" unicode="Ë"/><glyph d="M192 0h-64h-64h-64v64h64v64v64v64v64v64h-64v64h64h64h64h64v-64h-64v-64v-64v-64v-64v-64h64v-64h-64zM128 512h-64v64h-64v64h64h64v-64h64v-64h-64z" glyph-name="Igrave" horiz-adv-x="320" unicode="Ì"/><glyph d="M192 0h-64h-64h-64v64h64v64v64v64v64v64h-64v64h64h64h64h64v-64h-64v-64v-64v-64v-64v-64h64v-64h-64zM128 512h-64v64h64v64h64h64v-64h-64v-64h-64z" glyph-name="Iacute" horiz-adv-x="320" unicode="Í"/><glyph d="M0 512v64h64v-64h-64zM192 0h-64h-64h-64v64h64v64v64v64v64v64h-64v64h64h64h64h64v-64h-64v-64v-64v-64v-64v-64h64v-64h-64zM192 512h-64v64h-64v64h64h64v-64h64v-64h-64z" glyph-name="Icircumflex" horiz-adv-x="320" unicode="Î"/><glyph d="M0 512v64v64h64v-64v-64h-64zM192 0h-64h-64h-64v64h64v64v64v64v64v64h-64v64h64h64h64h64v-64h-64v-64v-64v-64v-64v-64h64v-64h-64zM192 512h-64v64v64h64h64v-64v-64h-64z" glyph-name="Idieresis" horiz-adv-x="320" unicode="Ï"/><glyph d="M320 0h-64h-64h-64h-64v64v64v64h-64v64h64v64v64v64h64h64h64h64h64v-64h64v-64v-64v-64v-64v-64h-64v-64h-64zM256 64h64v64v64v64v64v64h-64h-64v-64v-64h64v-64h-64v-64v-64h64z" glyph-name="Eth" horiz-adv-x="512" unicode="Ð"/><glyph d="M64 512v64h64v-64h-64zM320 0h-64v64v64v64h-64v64h-64v-64v-64v-64v-64h-64h-64v64v64v64v64v64v64v64h64h64v-64h64v-64h64v64v64h64h64v-64v-64v-64v-64v-64v-64v-64h-64zM256 512h-64v64h64v64h64h64v-64h-64v-64h-64zM192 576h-64v64h64v-64z" glyph-name="Ntilde" unicode="Ñ"/><glyph d="M256 0h-64h-64h-64v64h-64v64v64v64v64v64h64v64h64h64h64h64v-64h64v-64v-64v-64v-64v-64h-64v-64h-64zM192 64h64v64v64v64v64v64h-64h-64v-64v-64v-64v-64v-64h64zM192 512h-64v64h-64v64h64h64v-64h64v-64h-64z" glyph-name="Ograve" unicode="Ò"/><glyph d="M256 0h-64h-64h-64v64h-64v64v64v64v64v64h64v64h64h64h64h64v-64h64v-64v-64v-64v-64v-64h-64v-64h-64zM192 64h64v64v64v64v64v64h-64h-64v-64v-64v-64v-64v-64h64zM192 512h-64v64h64v64h64h64v-64h-64v-64h-64z" glyph-name="Oacute" unicode="Ó"/><glyph d="M64 512v64h64v-64h-64zM256 0h-64h-64h-64v64h-64v64v64v64v64v64h64v64h64h64h64h64v-64h64v-64v-64v-64v-64v-64h-64v-64h-64zM192 64h64v64v64v64v64v64h-64h-64v-64v-64v-64v-64v-64h64zM256 512h-64v64h-64v64h64h64v-64h64v-64h-64z" glyph-name="Ocircumflex" unicode="Ô"/><glyph d="M64 512v64h64v-64h-64zM256 0h-64h-64h-64v64h-64v64v64v64v64v64h64v64h64h64h64h64v-64h64v-64v-64v-64v-64v-64h-64v-64h-64zM192 64h64v64v64v64v64v64h-64h-64v-64v-64v-64v-64v-64h64zM256 512h-64v64h64v64h64h64v-64h-64v-64h-64zM192 576h-64v64h64v-64z" glyph-name="Otilde" unicode="Õ"/><glyph d="M64 512v64v64h64v-64v-64h-64zM256 0h-64h-64h-64v64h-64v64v64v64v64v64h64v64h64h64h64h64v-64h64v-64v-64v-64v-64v-64h-64v-64h-64zM192 64h64v64v64v64v64v64h-64h-64v-64v-64v-64v-64v-64h64zM256 512h-64v64v64h64h64v-64v-64h-64z" glyph-name="Odieresis" unicode="Ö"/><glyph d="M0 -64v64h64v-64h-64zM256 0h-64h-64h-64v64h-64v64v64v64v64v64h64v64h64h64h64h64v-64h64v-64v-64v-64v-64v-64h-64v-64h-64zM256 64v64v64h-64v64v64h64v64h-64h-64v-64v-64v-64h64v-64v-64h64zM320 448v64h64v-64h-64z" glyph-name="Oslash" unicode="Ø"/><glyph d="M256 0h-64h-64h-64v64h-64v64v64v64v64v64v64h64h64v-64v-64v-64v-64v-64v-64h64h64v64v64v64v64v64v64h64h64v-64v-64v-64v-64v-64v-64h-64v-64h-64zM192 512h-64v64h-64v64h64h64v-64h64v-64h-64z" glyph-name="Ugrave" unicode="Ù"/><glyph d="M256 0h-64h-64h-64v64h-64v64v64v64v64v64v64h64h64v-64v-64v-64v-64v-64v-64h64h64v64v64v64v64v64v64h64h64v-64v-64v-64v-64v-64v-64h-64v-64h-64zM192 512h-64v64h64v64h64h64v-64h-64v-64h-64z" glyph-name="Uacute" unicode="Ú"/><glyph d="M64 512v64h64v-64h-64zM256 0h-64h-64h-64v64h-64v64v64v64v64v64v64h64h64v-64v-64v-64v-64v-64v-64h64h64v64v64v64v64v64v64h64h64v-64v-64v-64v-64v-64v-64h-64v-64h-64zM256 512h-64v64h-64v64h64h64v-64h64v-64h-64z" glyph-name="Ucircumflex" unicode="Û"/><glyph d="M64 512v64v64h64v-64v-64h-64zM256 0h-64h-64h-64v64h-64v64v64v64v64v64v64h64h64v-64v-64v-64v-64v-64v-64h64h64v64v64v64v64v64v64h64h64v-64v-64v-64v-64v-64v-64h-64v-64h-64zM256 512h-64v64v64h64h64v-64v-64h-64z" glyph-name="Udieresis" unicode="Ü"/><glyph d="M192 0h-64v64v64v64h-64v64h-64v64v64v64h64h64v-64v-64v-64h64h64v64v64v64h64h64v-64v-64v-64h-64v-64h-64v-64v-64v-64h-64zM192 512h-64v64h64v64h64h64v-64h-64v-64h-64z" glyph-name="Yacute" unicode="Ý"/><glyph d="M64 0h-64v64v64v64v64v64v64v64h64h64v-64h64h64h64v-64h64v-64v-64v-64h-64v-64h-64h-64h-64v-64h-64zM192 128h64v64v64v64h-64h-64v-64v-64v-64h64z" glyph-name="Thorn" unicode="Þ"/><glyph d="M320 0h-64h-64v64h64h64v64v64h-64h-64v64h64v64v64h-64h-64v-64v-64v-64v-64v-64v-64h-64h-64v64v64v64v64v64v64h64v64h64h64h64h64v-64h64v-64h-64v-64h64v-64h64v-64v-64h-64v-64h-64z" glyph-name="germandbls" horiz-adv-x="512" unicode="ß"/><glyph d="M320 0h-64h-64h-64h-64v64h-64v64h64v64h64h64h64v64h-64h-64h-64v64h64h64h64h64v-64h64v-64v-64v-64v-64h-64zM192 64h64v64h-64h-64v-64h64zM256 384h-64v64h-64v64h64h64v-64h64v-64h-64z" glyph-name="agrave" unicode="à"/><glyph d="M320 0h-64h-64h-64h-64v64h-64v64h64v64h64h64h64v64h-64h-64h-64v64h64h64h64h64v-64h64v-64v-64v-64v-64h-64zM192 64h64v64h-64h-64v-64h64zM192 384h-64v64h64v64h64h64v-64h-64v-64h-64z" glyph-name="aacute" unicode="á"/><glyph d="M128 384v64h64v-64h-64zM320 0h-64h-64h-64h-64v64h-64v64h64v64h64h64h64v64h-64h-64h-64v64h64h64h64h64v-64h64v-64v-64v-64v-64h-64zM192 64h64v64h-64h-64v-64h64zM320 384h-64v64h-64v64h64h64v-64h64v-64h-64z" glyph-name="acircumflex" unicode="â"/><glyph d="M64 384v64h64v-64h-64zM320 0h-64h-64h-64h-64v64h-64v64h64v64h64h64h64v64h-64h-64h-64v64h64h64h64h64v-64h64v-64v-64v-64v-64h-64zM192 64h64v64h-64h-64v-64h64zM256 384h-64v64h64v64h64h64v-64h-64v-64h-64zM192 448h-64v64h64v-64z" glyph-name="atilde" unicode="ã"/><glyph d="M64 384v64v64h64v-64v-64h-64zM320 0h-64h-64h-64h-64v64h-64v64h64v64h64h64h64v64h-64h-64h-64v64h64h64h64h64v-64h64v-64v-64v-64v-64h-64zM192 64h64v64h-64h-64v-64h64zM256 384h-64v64v64h64h64v-64v-64h-64z" glyph-name="adieresis" unicode="ä"/><glyph d="M320 0h-64h-64h-64h-64v64h-64v64h64v64h64h64h64v64h-64h-64h-64v64h64h64h64h64v-64h64v-64v-64v-64v-64h-64zM192 64h64v64h-64h-64v-64h64zM192 384h-64v64h-64v64h64v64h64h64v-64h64v-64h-64v-64h-64zM192 448v64h-64v-64h64z" glyph-name="aring" unicode="å"/><glyph d="M576 64h64v-64h-64h-64h-64h-64h-64h-64h-64h-64h-64v64h-64v64h64v64h64h64h64v64h-64h-64h-64v64h64h64h64h64v-64h64v64h64h64h64v-64h64v-64v-64h-64h-64h-64h-64v-64h64h64h64zM192 64h64v64h-64h-64v-64h64zM448 192h64v64h-64h-64v-64h64z" glyph-name="ae" horiz-adv-x="704" unicode="æ"/><glyph d="M128 -128h-64v64h64v64h-64v64h-64v64v64v64h64v64h64h64h64h64v-64h-64h-64h-64v-64v-64v-64h64h64h64v-64h-64v-64h-64v-64h-64z" glyph-name="ccedilla" horiz-adv-x="384" unicode="ç"/><glyph d="M320 64h64v-64h-64h-64h-64h-64h-64v64h-64v64v64v64h64v64h64h64h64h64v-64h64v-64v-64h-64h-64h-64h-64v-64h64h64h64zM192 192h64v64h-64h-64v-64h64zM192 384h-64v64h-64v64h64h64v-64h64v-64h-64z" glyph-name="egrave" unicode="è"/><glyph d="M320 64h64v-64h-64h-64h-64h-64h-64v64h-64v64v64v64h64v64h64h64h64h64v-64h64v-64v-64h-64h-64h-64h-64v-64h64h64h64zM192 192h64v64h-64h-64v-64h64zM192 384h-64v64h64v64h64h64v-64h-64v-64h-64z" glyph-name="eacute" unicode="é"/><glyph d="M64 384v64h64v-64h-64zM320 64h64v-64h-64h-64h-64h-64h-64v64h-64v64v64v64h64v64h64h64h64h64v-64h64v-64v-64h-64h-64h-64h-64v-64h64h64h64zM192 192h64v64h-64h-64v-64h64zM256 384h-64v64h-64v64h64h64v-64h64v-64h-64z" glyph-name="ecircumflex" unicode="ê"/><glyph d="M64 384v64v64h64v-64v-64h-64zM320 64h64v-64h-64h-64h-64h-64h-64v64h-64v64v64v64h64v64h64h64h64h64v-64h64v-64v-64h-64h-64h-64h-64v-64h64h64h64zM192 192h64v64h-64h-64v-64h64zM256 384h-64v64v64h64h64v-64v-64h-64z" glyph-name="edieresis" unicode="ë"/><glyph d="M192 0h-64h-64h-64v64h64v64v64v64h-64v64h64h64h64v-64v-64v-64v-64h64v-64h-64zM128 384h-64v64h-64v64h64h64v-64h64v-64h-64z" glyph-name="igrave" horiz-adv-x="320" unicode="ì"/><glyph d="M192 0h-64h-64h-64v64h64v64v64v64h-64v64h64h64h64v-64v-64v-64v-64h64v-64h-64zM128 384h-64v64h64v64h64h64v-64h-64v-64h-64z" glyph-name="iacute" horiz-adv-x="320" unicode="í"/><glyph d="M0 384v64h64v-64h-64zM192 0h-64h-64h-64v64h64v64v64v64h-64v64h64h64h64v-64v-64v-64v-64h64v-64h-64zM192 384h-64v64h-64v64h64h64v-64h64v-64h-64z" glyph-name="icircumflex" horiz-adv-x="320" unicode="î"/><glyph d="M0 384v64v64h64v-64v-64h-64zM192 0h-64h-64h-64v64h64v64v64v64h-64v64h64h64h64v-64v-64v-64v-64h64v-64h-64zM192 384h-64v64v64h64h64v-64v-64h-64z" glyph-name="idieresis" horiz-adv-x="320" unicode="ï"/><glyph d="M256 0h-64h-64h-64v64h-64v64v64v64h64v64h64h64v64h64h64v-64h64v-64v-64v-64v-64h-64v-64h-64zM192 64h64v64v64h-64v64h-64v-64v-64v-64h64zM256 256v64h-64v-64h64zM320 384v64h64v-64h-64zM192 384h-64h-64v64h64h64v-64z" glyph-name="eth" unicode="ð"/><glyph d="M64 384v64h64v-64h-64zM320 0h-64v64v64v64v64h-64h-64v-64v-64v-64v-64h-64h-64v64v64v64v64v64h64h64h64h64h64v-64h64v-64v-64v-64v-64h-64zM256 384h-64v64h64v64h64h64v-64h-64v-64h-64zM192 448h-64v64h64v-64z" glyph-name="ntilde" unicode="ñ"/><glyph d="M256 0h-64h-64h-64v64h-64v64v64v64h64v64h64h64h64h64v-64h64v-64v-64v-64h-64v-64h-64zM192 64h64v64v64v64h-64h-64v-64v-64v-64h64zM192 384h-64v64h-64v64h64h64v-64h64v-64h-64z" glyph-name="ograve" unicode="ò"/><glyph d="M256 0h-64h-64h-64v64h-64v64v64v64h64v64h64h64h64h64v-64h64v-64v-64v-64h-64v-64h-64zM192 64h64v64v64v64h-64h-64v-64v-64v-64h64zM192 384h-64v64h64v64h64h64v-64h-64v-64h-64z" glyph-name="oacute" unicode="ó"/><glyph d="M64 384v64h64v-64h-64zM256 0h-64h-64h-64v64h-64v64v64v64h64v64h64h64h64h64v-64h64v-64v-64v-64h-64v-64h-64zM192 64h64v64v64v64h-64h-64v-64v-64v-64h64zM256 384h-64v64h-64v64h64h64v-64h64v-64h-64z" glyph-name="ocircumflex" unicode="ô"/><glyph d="M64 384v64h64v-64h-64zM256 0h-64h-64h-64v64h-64v64v64v64h64v64h64h64h64h64v-64h64v-64v-64v-64h-64v-64h-64zM192 64h64v64v64v64h-64h-64v-64v-64v-64h64zM256 384h-64v64h64v64h64h64v-64h-64v-64h-64zM192 448h-64v64h64v-64z" glyph-name="otilde" unicode="õ"/><glyph d="M64 384v64v64h64v-64v-64h-64zM256 0h-64h-64h-64v64h-64v64v64v64h64v64h64h64h64h64v-64h64v-64v-64v-64h-64v-64h-64zM192 64h64v64v64v64h-64h-64v-64v-64v-64h64zM256 384h-64v64v64h64h64v-64v-64h-64z" glyph-name="odieresis" unicode="ö"/><glyph d="M0 -64v64h64v-64h-64zM256 0h-64h-64h-64v64h-64v64v64v64h64v64h64h64h64h64v-64h64v-64v-64v-64h-64v-64h-64zM256 64v64v64h-64v64h-64v-64h64v-64v-64h64zM320 320v64h64v-64h-64z" glyph-name="oslash" unicode="ø"/><glyph d="M256 0h-64h-64h-64v64h-64v64v64v64v64h64h64v-64v-64v-64v-64h64h64v64v64v64v64h64h64v-64v-64v-64v-64h-64v-64h-64zM192 384h-64v64h-64v64h64h64v-64h64v-64h-64z" glyph-name="ugrave" unicode="ù"/><glyph d="M256 0h-64h-64h-64v64h-64v64v64v64v64h64h64v-64v-64v-64v-64h64h64v64v64v64v64h64h64v-64v-64v-64v-64h-64v-64h-64zM192 384h-64v64h64v64h64h64v-64h-64v-64h-64z" glyph-name="uacute" unicode="ú"/><glyph d="M64 384v64h64v-64h-64zM256 0h-64h-64h-64v64h-64v64v64v64v64h64h64v-64v-64v-64v-64h64h64v64v64v64v64h64h64v-64v-64v-64v-64h-64v-64h-64zM256 384h-64v64h-64v64h64h64v-64h64v-64h-64z" glyph-name="ucircumflex" unicode="û"/><glyph d="M64 384v64v64h64v-64v-64h-64zM256 0h-64h-64h-64v64h-64v64v64v64v64h64h64v-64v-64v-64v-64h64h64v64v64v64v64h64h64v-64v-64v-64v-64h-64v-64h-64zM256 384h-64v64v64h64h64v-64v-64h-64z" glyph-name="udieresis" unicode="ü"/><glyph d="M256 -64h-64h-64v64h64h64v64h-64h-64h-64v64h-64v64v64v64h64h64v-64v-64v-64h64h64v64v64v64h64h64v-64v-64v-64v-64v-64h-64v-64h-64zM192 384h-64v64h64v64h64h64v-64h-64v-64h-64z" glyph-name="yacute" unicode="ý"/><glyph d="M64 -128h-64v64v64v64v64v64v64v64v64v64h64h64v-64v-64h64h64h64v-64h64v-64v-64v-64h-64v-64h-64h-64h-64v-64v-64h-64zM192 64h64v64v64v64h-64h-64v-64v-64v-64h64z" glyph-name="thorn" unicode="þ"/><glyph d="M64 384v64v64h64v-64v-64h-64zM256 -64h-64h-64v64h64h64v64h-64h-64h-64v64h-64v64v64v64h64h64v-64v-64v-64h64h64v64v64v64h64h64v-64v-64v-64v-64v-64h-64v-64h-64zM256 384h-64v64v64h64h64v-64v-64h-64z" glyph-name="ydieresis" unicode="ÿ"/><glyph d="M512 64h64v-64h-64h-64h-64h-64h-64h-64h-64h-64v64h-64v64v64v64v64v64h64v64h64h64h64h64h64h64h64h64v-64h-64h-64h-64v-64v-64h64h64v-64h-64h-64v-64v-64h64h64zM192 64h64v64v64v64v64v64h-64h-64v-64v-64v-64v-64v-64h64z" glyph-name="OE" horiz-adv-x="640" unicode="Œ"/><glyph d="M576 64h64v-64h-64h-64h-64h-64h-64h-64h-64h-64h-64v64h-64v64v64v64h64v64h64h64h64v-64h-64h-64v-64v-64v-64h64h64v64v64v64h64v64h64h64h64h64v-64h64v-64v-64h-64h-64h-64h-64v-64h64h64h64zM448 192h64v64h-64h-64v-64h64z" glyph-name="oe" horiz-adv-x="704" unicode="œ"/><glyph d="M64 384v64v64h64v-64v-64h-64zM256 -64h-64h-64v64h64h64v64h-64h-64h-64v64h-64v64v64v64h64h64v-64v-64v-64h64h64v64v64v64h64h64v-64v-64v-64v-64v-64h-64v-64h-64zM256 384h-64v64v64h64h64v-64v-64h-64z" glyph-name="Ydieresis" unicode="Ÿ"/><glyph d="M320 64h64v-64h-64h-64h-64h-64v64h-64v64h-64v64h64v64h-64v64h64v64h64v64h64h64h64h64v-64h-64h-64h-64v-64h64h64v-64h-64h-64v-64h64h64v-64h-64h-64v-64h64h64z" glyph-name="Euro" unicode="€"/><glyph glyph-name="uni3000" horiz-adv-x="1024"/><glyph glyph-name=".null" horiz-adv-x="0"/><glyph glyph-name="nonmarkingreturn" horiz-adv-x="341"/></font>
</defs>
</svg>
